RBDS019runT45_grf
version=1
nRows=37
nColumns=19
inDegrees=no
endheader
time	ground_force_r_vx	ground_force_r_vy	ground_force_r_vz	ground_force_r_px	ground_force_r_py	ground_force_r_pz	ground_force_r_mx	ground_force_r_my	ground_force_r_mz	ground_force_l_vx	ground_force_l_vy	ground_force_l_vz	ground_force_l_px	ground_force_l_py	ground_force_l_pz	ground_force_l_mx	ground_force_l_my	ground_force_l_mz
     14.99900000	      0.00000000	      0.00000000	      0.00000000	      0.00000000	      0.00000000	      0.00000000	      0.00000000	      0.00000000	      0.00000000	   -120.61055372	   1547.88722817	    126.79069560	      2.33891918	      0.00000000	      0.99707523	     -0.00000000	      4.85429737	     -0.00000000
     15.00000000	      0.00000000	      0.00000000	      0.00000000	      0.00000000	      0.00000000	      0.00000000	      0.00000000	      0.00000000	      0.00000000	   -112.85516499	   1544.51925309	    127.23008539	      2.33501547	      0.00000000	      0.99694055	     -0.00000000	      4.94968033	     -0.00000000
     15.00100000	      0.00000000	      0.00000000	      0.00000000	      0.00000000	      0.00000000	      0.00000000	      0.00000000	      0.00000000	      0.00000000	   -104.63246904	   1539.79787501	    127.32124022	      2.33102305	      0.00000000	      0.99683182	     -0.00000000	      5.01439623	     -0.00000000
     15.00200000	      0.00000000	      0.00000000	      0.00000000	      0.00000000	      0.00000000	      0.00000000	      0.00000000	      0.00000000	      0.00000000	    -96.40977310	   1535.07649693	    127.41239505	      2.32703063	      0.00000000	      0.99672308	     -0.00000000	      5.07911212	     -0.00000000
     15.00300000	      0.00000000	      0.00000000	      0.00000000	      0.00000000	      0.00000000	      0.00000000	      0.00000000	      0.00000000	      0.00000000	    -88.18707715	   1530.35511884	    127.50354988	      2.32303821	      0.00000000	      0.99661435	     -0.00000000	      5.14382801	     -0.00000000
     15.00400000	      0.00000000	      0.00000000	      0.00000000	      0.00000000	      0.00000000	      0.00000000	      0.00000000	      0.00000000	      0.00000000	    -79.74956932	   1524.71399231	    127.36157503	      2.31899461	      0.00000000	      0.99652364	     -0.00000000	      5.18744171	     -0.00000000
     15.00500000	      0.00000000	      0.00000000	      0.00000000	      0.00000000	      0.00000000	      0.00000000	      0.00000000	      0.00000000	      0.00000000	    -71.20465555	   1518.61299155	    127.10303534	      2.31492543	      0.00000000	      0.99644194	     -0.00000000	      5.22050432	     -0.00000000
     15.00600000	      0.00000000	      0.00000000	      0.00000000	      0.00000000	      0.00000000	      0.00000000	      0.00000000	      0.00000000	      0.00000000	    -62.65974177	   1512.51199079	    126.84449564	      2.31085625	      0.00000000	      0.99636025	     -0.00000000	      5.25356693	     -0.00000000
     15.00700000	      0.00000000	      0.00000000	      0.00000000	      0.00000000	      0.00000000	      0.00000000	      0.00000000	      0.00000000	      0.00000000	    -54.05836351	   1505.94103760	    126.47183408	      2.30676527	      0.00000000	      0.99628767	     -0.00000000	      5.27609622	     -0.00000000
     15.00800000	      0.00000000	      0.00000000	      0.00000000	      0.00000000	      0.00000000	      0.00000000	      0.00000000	      0.00000000	      0.00000000	    -45.34405627	   1498.43017953	    125.87092878	      2.30263070	      0.00000000	      0.99623335	     -0.00000000	      5.27755886	     -0.00000000
     15.00900000	      0.00000000	      0.00000000	      0.00000000	      0.00000000	      0.00000000	      0.00000000	      0.00000000	      0.00000000	      0.00000000	    -36.62974903	   1490.91932146	    125.27002348	      2.29849613	      0.00000000	      0.99617902	     -0.00000000	      5.27902150	     -0.00000000
     15.01000000	      0.00000000	      0.00000000	      0.00000000	      0.00000000	      0.00000000	      0.00000000	      0.00000000	      0.00000000	      0.00000000	    -27.91544180	   1483.40846339	    124.66911818	      2.29436156	      0.00000000	      0.99612469	     -0.00000000	      5.28048414	     -0.00000000
     15.01100000	      0.00000000	      0.00000000	      0.00000000	      0.00000000	      0.00000000	      0.00000000	      0.00000000	      0.00000000	      0.00000000	    -19.18792954	   1474.45910921	    123.74144200	      2.29017233	      0.00000000	      0.99609732	     -0.00000000	      5.25130769	     -0.00000000
     15.01200000	      0.00000000	      0.00000000	      0.00000000	      0.00000000	      0.00000000	      0.00000000	      0.00000000	      0.00000000	      0.00000000	    -10.46041729	   1465.50975503	    122.81376582	      2.28598310	      0.00000000	      0.99606994	     -0.00000000	      5.22213124	     -0.00000000
     15.01300000	      0.00000000	      0.00000000	      0.00000000	      0.00000000	      0.00000000	      0.00000000	      0.00000000	      0.00000000	      0.00000000	     -1.73290504	   1456.56040084	    121.88608964	      2.28179387	      0.00000000	      0.99604256	     -0.00000000	      5.19295479	     -0.00000000
     15.01400000	      0.00000000	      0.00000000	      0.00000000	      0.00000000	      0.00000000	      0.00000000	      0.00000000	      0.00000000	      0.00000000	      6.89998502	   1446.63778113	    120.75591937	      2.27757492	      0.00000000	      0.99603241	     -0.00000000	      5.14448921	     -0.00000000
     15.01500000	      0.00000000	      0.00000000	      0.00000000	      0.00000000	      0.00000000	      0.00000000	      0.00000000	      0.00000000	      0.00000000	     15.48556398	   1436.22852865	    119.52450206	      2.27334111	      0.00000000	      0.99603087	     -0.00000000	      5.08637905	     -0.00000000
     15.01600000	      0.00000000	      0.00000000	      0.00000000	      0.00000000	      0.00000000	      0.00000000	      0.00000000	      0.00000000	      0.00000000	     24.07114294	   1425.81927616	    118.29308475	      2.26910730	      0.00000000	      0.99602932	     -0.00000000	      5.02826890	     -0.00000000
     15.01700000	      0.00000000	      0.00000000	      0.00000000	      0.00000000	      0.00000000	      0.00000000	      0.00000000	      0.00000000	      0.00000000	     32.55948667	   1414.92046434	    116.97021926	      2.26486182	      0.00000000	      0.99603581	     -0.00000000	      4.96127141	     -0.00000000
     15.01800000	      0.00000000	      0.00000000	      0.00000000	      0.00000000	      0.00000000	      0.00000000	      0.00000000	      0.00000000	      0.00000000	     40.85335992	   1403.04253385	    115.46445741	      2.26059297	      0.00000000	      0.99605835	     -0.00000000	      4.87649926	     -0.00000000
     15.01900000	      0.00000000	      0.00000000	      0.00000000	      0.00000000	      0.00000000	      0.00000000	      0.00000000	      0.00000000	      0.00000000	     49.14723318	   1391.16460335	    113.95869557	      2.25632412	      0.00000000	      0.99608089	     -0.00000000	      4.79172710	     -0.00000000
     15.02000000	      0.00000000	      0.00000000	      0.00000000	      0.00000000	      0.00000000	      0.00000000	      0.00000000	      0.00000000	      0.00000000	     57.44110643	   1379.28667286	    112.45293372	      2.25205527	      0.00000000	      0.99610343	     -0.00000000	      4.70695495	     -0.00000000
     15.02100000	      0.00000000	      0.00000000	      0.00000000	      0.00000000	      0.00000000	      0.00000000	      0.00000000	      0.00000000	      0.00000000	     65.30294714	   1365.94877342	    110.70736305	      2.24776048	      0.00000000	      0.99614776	     -0.00000000	      4.59818055	     -0.00000000
     15.02200000	      0.00000000	      0.00000000	      0.00000000	      0.00000000	      0.00000000	      0.00000000	      0.00000000	      0.00000000	      0.00000000	     73.16478786	   1352.61087398	    108.96179238	      2.24346569	      0.00000000	      0.99619209	     -0.00000000	      4.48940615	     -0.00000000
     15.02300000	      0.00000000	      0.00000000	      0.00000000	      0.00000000	      0.00000000	      0.00000000	      0.00000000	      0.00000000	      0.00000000	     81.02662857	   1339.27297455	    107.21622171	      2.23917090	      0.00000000	      0.99623642	     -0.00000000	      4.38063175	     -0.00000000
     15.02400000	      0.00000000	      0.00000000	      0.00000000	      0.00000000	      0.00000000	      0.00000000	      0.00000000	      0.00000000	      0.00000000	     88.51567146	   1324.98197047	    105.33635290	      2.23486471	      0.00000000	      0.99629345	     -0.00000000	      4.25777677	     -0.00000000
     15.02500000	      0.00000000	      0.00000000	      0.00000000	      0.00000000	      0.00000000	      0.00000000	      0.00000000	      0.00000000	      0.00000000	     95.81831544	   1310.21441408	    103.38933501	      2.23055284	      0.00000000	      0.99635684	     -0.00000000	      4.12788151	     -0.00000000
     15.02600000	      0.00000000	      0.00000000	      0.00000000	      0.00000000	      0.00000000	      0.00000000	      0.00000000	      0.00000000	      0.00000000	    103.12095941	   1295.44685768	    101.44231711	      2.22624096	      0.00000000	      0.99642022	     -0.00000000	      3.99798624	     -0.00000000
     15.02700000	      0.00000000	      0.00000000	      0.00000000	      0.00000000	      0.00000000	      0.00000000	      0.00000000	      0.00000000	      0.00000000	    110.20028520	   1280.22111043	     99.44176720	      2.22192632	      0.00000000	      0.99648893	     -0.00000000	      3.86203623	     -0.00000000
     15.02800000	      0.00000000	      0.00000000	      0.00000000	      0.00000000	      0.00000000	      0.00000000	      0.00000000	      0.00000000	      0.00000000	    116.83297464	   1264.07898148	     97.33415324	      2.21760616	      0.00000000	      0.99656829	     -0.00000000	      3.71397672	     -0.00000000
     15.02900000	      0.00000000	      0.00000000	      0.00000000	      0.00000000	      0.00000000	      0.00000000	      0.00000000	      0.00000000	      0.00000000	    123.46566407	   1247.93685253	     95.22653928	      2.21328601	      0.00000000	      0.99664766	     -0.00000000	      3.56591722	     -0.00000000
     15.03000000	      0.00000000	      0.00000000	      0.00000000	      0.00000000	      0.00000000	      0.00000000	      0.00000000	      0.00000000	      0.00000000	    130.09835351	   1231.79472357	     93.11892532	      2.20896585	      0.00000000	      0.99672702	     -0.00000000	      3.41785772	     -0.00000000
     15.03100000	      0.00000000	      0.00000000	      0.00000000	      0.00000000	      0.00000000	      0.00000000	      0.00000000	      0.00000000	      0.00000000	    135.96941666	   1214.35995800	     90.89274569	      2.20464643	      0.00000000	      0.99681909	     -0.00000000	      3.25454452	     -0.00000000
     15.03200000	      0.00000000	      0.00000000	      0.00000000	      0.00000000	      0.00000000	      0.00000000	      0.00000000	      0.00000000	      0.00000000	    141.84047981	   1196.92519243	     88.66656606	      2.20032700	      0.00000000	      0.99691116	     -0.00000000	      3.09123132	     -0.00000000
     15.03300000	      0.00000000	      0.00000000	      0.00000000	      0.00000000	      0.00000000	      0.00000000	      0.00000000	      0.00000000	      0.00000000	    147.71154297	   1179.49042685	     86.44038643	      2.19600757	      0.00000000	      0.99700322	     -0.00000000	      2.92791812	     -0.00000000
     15.03400000	      0.00000000	      0.00000000	      0.00000000	      0.00000000	      0.00000000	      0.00000000	      0.00000000	      0.00000000	      0.00000000	    153.02782966	   1161.26702502	     84.16313908	      2.19169492	      0.00000000	      0.99710151	     -0.00000000	      2.75628300	     -0.00000000
     15.03500000	      0.00000000	      0.00000000	      0.00000000	      0.00000000	      0.00000000	      0.00000000	      0.00000000	      0.00000000	      0.00000000	    158.06672812	   1142.64930504	     81.86035788	      2.18738566	      0.00000000	      0.99720291	     -0.00000000	      2.58048691	     -0.00000000
